%TF.GenerationSoftware,KiCad,Pcbnew,9.0.5*%
%TF.CreationDate,2026-06-22T17:29:21+05:30*%
%TF.ProjectId,spotify_display,73706f74-6966-4795-9f64-6973706c6179,rev?*%
%TF.SameCoordinates,Original*%
%TF.FileFunction,Soldermask,Top*%
%TF.FilePolarity,Negative*%
%FSLAX46Y46*%
G04 Gerber Fmt 4.6, Leading zero omitted, Abs format (unit mm)*
G04 Created by KiCad (PCBNEW 9.0.5) date 2026-06-22 17:29:21*
%MOMM*%
%LPD*%
G01*
G04 APERTURE LIST*
G04 Aperture macros list*
%AMRoundRect*
0 Rectangle with rounded corners*
0 $1 Rounding radius*
0 $2 $3 $4 $5 $6 $7 $8 $9 X,Y pos of 4 corners*
0 Add a 4 corners polygon primitive as box body*
4,1,4,$2,$3,$4,$5,$6,$7,$8,$9,$2,$3,0*
0 Add four circle primitives for the rounded corners*
1,1,$1+$1,$2,$3*
1,1,$1+$1,$4,$5*
1,1,$1+$1,$6,$7*
1,1,$1+$1,$8,$9*
0 Add four rect primitives between the rounded corners*
20,1,$1+$1,$2,$3,$4,$5,0*
20,1,$1+$1,$4,$5,$6,$7,0*
20,1,$1+$1,$6,$7,$8,$9,0*
20,1,$1+$1,$8,$9,$2,$3,0*%
G04 Aperture macros list end*
%ADD10C,2.200000*%
%ADD11C,1.700000*%
%ADD12C,4.000000*%
%ADD13C,1.500000*%
%ADD14R,2.000000X2.000000*%
%ADD15C,2.000000*%
%ADD16R,3.200000X2.000000*%
%ADD17C,3.000000*%
%ADD18O,2.000000X1.600000*%
%ADD19RoundRect,0.100000X-1.150000X-0.100000X1.150000X-0.100000X1.150000X0.100000X-1.150000X0.100000X0*%
G04 APERTURE END LIST*
D10*
%TO.C,SW3*%
X130810000Y-90170000D03*
X133350000Y-96520000D03*
D11*
X128270000Y-99060000D03*
D12*
X128270000Y-93980000D03*
D11*
X128270000Y-88900000D03*
%TD*%
D10*
%TO.C,SW1*%
X168870000Y-90320000D03*
X171410000Y-96670000D03*
D11*
X166330000Y-99210000D03*
D12*
X166330000Y-94130000D03*
D11*
X166330000Y-89050000D03*
%TD*%
D10*
%TO.C,SW2*%
X149860000Y-90170000D03*
X152400000Y-96520000D03*
D11*
X147320000Y-99060000D03*
D12*
X147320000Y-93980000D03*
D11*
X147320000Y-88900000D03*
%TD*%
D13*
%TO.C,SW4*%
X200415000Y-91480000D03*
X200415000Y-96480000D03*
D14*
X185915000Y-91480000D03*
D15*
X185915000Y-96480000D03*
X185915000Y-93980000D03*
D16*
X193415000Y-88380000D03*
X193415000Y-99580000D03*
%TD*%
D17*
%TO.C,U1*%
X175687500Y-48112500D03*
X196087500Y-48112500D03*
D14*
X174437500Y-52512500D03*
D18*
X174437500Y-55052500D03*
X174437500Y-57592500D03*
X174437500Y-60132500D03*
X174437500Y-62672500D03*
X174437500Y-65212500D03*
X174437500Y-67752500D03*
X174437500Y-70292500D03*
X197297500Y-70292500D03*
X197297500Y-67752500D03*
X197297500Y-65212500D03*
X197297500Y-62672500D03*
X197297500Y-60132500D03*
X197297500Y-57592500D03*
X197297500Y-55052500D03*
X197297500Y-52512500D03*
%TD*%
D19*
%TO.C,U2*%
X155668750Y-55045000D03*
X155668750Y-55845000D03*
X155668750Y-56645000D03*
X155668750Y-57445000D03*
X155668750Y-58245000D03*
X155668750Y-59045000D03*
X155668750Y-59845000D03*
X155668750Y-60645000D03*
X155668750Y-61445000D03*
X155668750Y-62245000D03*
X155668750Y-63045000D03*
X155668750Y-63845000D03*
X155668750Y-64645000D03*
X155668750Y-65445000D03*
%TD*%
M02*
