%TF.GenerationSoftware,KiCad,Pcbnew,9.0.5*%
%TF.CreationDate,2026-06-22T17:29:21+05:30*%
%TF.ProjectId,spotify_display,73706f74-6966-4795-9f64-6973706c6179,rev?*%
%TF.SameCoordinates,Original*%
%TF.FileFunction,Copper,L1,Top*%
%TF.FilePolarity,Positive*%
%FSLAX46Y46*%
G04 Gerber Fmt 4.6, Leading zero omitted, Abs format (unit mm)*
G04 Created by KiCad (PCBNEW 9.0.5) date 2026-06-22 17:29:21*
%MOMM*%
%LPD*%
G01*
G04 APERTURE LIST*
G04 Aperture macros list*
%AMRoundRect*
0 Rectangle with rounded corners*
0 $1 Rounding radius*
0 $2 $3 $4 $5 $6 $7 $8 $9 X,Y pos of 4 corners*
0 Add a 4 corners polygon primitive as box body*
4,1,4,$2,$3,$4,$5,$6,$7,$8,$9,$2,$3,0*
0 Add four circle primitives for the rounded corners*
1,1,$1+$1,$2,$3*
1,1,$1+$1,$4,$5*
1,1,$1+$1,$6,$7*
1,1,$1+$1,$8,$9*
0 Add four rect primitives between the rounded corners*
20,1,$1+$1,$2,$3,$4,$5,0*
20,1,$1+$1,$4,$5,$6,$7,0*
20,1,$1+$1,$6,$7,$8,$9,0*
20,1,$1+$1,$8,$9,$2,$3,0*%
G04 Aperture macros list end*
%TA.AperFunction,ComponentPad*%
%ADD10C,2.200000*%
%TD*%
%TA.AperFunction,ComponentPad*%
%ADD11C,1.500000*%
%TD*%
%TA.AperFunction,ComponentPad*%
%ADD12R,2.000000X2.000000*%
%TD*%
%TA.AperFunction,ComponentPad*%
%ADD13C,2.000000*%
%TD*%
%TA.AperFunction,ComponentPad*%
%ADD14R,3.200000X2.000000*%
%TD*%
%TA.AperFunction,ComponentPad*%
%ADD15O,2.000000X1.600000*%
%TD*%
%TA.AperFunction,SMDPad,CuDef*%
%ADD16RoundRect,0.100000X-1.150000X-0.100000X1.150000X-0.100000X1.150000X0.100000X-1.150000X0.100000X0*%
%TD*%
%TA.AperFunction,ViaPad*%
%ADD17C,0.600000*%
%TD*%
%TA.AperFunction,Conductor*%
%ADD18C,0.200000*%
%TD*%
G04 APERTURE END LIST*
D10*
%TO.P,SW3,2,2*%
%TO.N,Net-(U1-D8)*%
X130810000Y-90170000D03*
%TO.P,SW3,1,1*%
%TO.N,Net-(U1-D4)*%
X133350000Y-96520000D03*
%TD*%
%TO.P,SW1,2,2*%
%TO.N,Net-(U1-D6)*%
X168870000Y-90320000D03*
%TO.P,SW1,1,1*%
%TO.N,Net-(U1-D4)*%
X171410000Y-96670000D03*
%TD*%
%TO.P,SW2,2,2*%
%TO.N,Net-(U1-D7)*%
X149860000Y-90170000D03*
%TO.P,SW2,1,1*%
%TO.N,Net-(U1-D4)*%
X152400000Y-96520000D03*
%TD*%
D11*
%TO.P,SW4,*%
%TO.N,*%
X200415000Y-91480000D03*
X200415000Y-96480000D03*
D12*
%TO.P,SW4,A,A*%
%TO.N,Net-(U1-D10)*%
X185915000Y-91480000D03*
D13*
%TO.P,SW4,B,B*%
%TO.N,Net-(U1-RX)*%
X185915000Y-96480000D03*
%TO.P,SW4,C,C*%
%TO.N,Net-(U1-D4)*%
X185915000Y-93980000D03*
D14*
%TO.P,SW4,MP*%
%TO.N,N/C*%
X193415000Y-88380000D03*
X193415000Y-99580000D03*
%TD*%
D12*
%TO.P,U1,1,EN*%
%TO.N,unconnected-(U1-EN-Pad1)*%
X174437500Y-52512500D03*
D15*
%TO.P,U1,2,D3*%
%TO.N,Net-(U1-D3)*%
X174437500Y-55052500D03*
%TO.P,U1,3,D2*%
%TO.N,Net-(U1-D2)*%
X174437500Y-57592500D03*
%TO.P,U1,4,D1*%
%TO.N,Net-(U1-D1)*%
X174437500Y-60132500D03*
%TO.P,U1,5,D0*%
%TO.N,unconnected-(U1-D0-Pad5)*%
X174437500Y-62672500D03*
%TO.P,U1,6,D4*%
%TO.N,Net-(U1-D4)*%
X174437500Y-65212500D03*
%TO.P,U1,7,D5*%
%TO.N,Net-(U1-D5)*%
X174437500Y-67752500D03*
%TO.P,U1,8,3V3*%
%TO.N,unconnected-(U1-3V3-Pad8)*%
X174437500Y-70292500D03*
%TO.P,U1,9,VBus*%
%TO.N,unconnected-(U1-VBus-Pad9)*%
X197297500Y-70292500D03*
%TO.P,U1,10,GND*%
%TO.N,Net-(U1-D4)*%
X197297500Y-67752500D03*
%TO.P,U1,11,D6*%
%TO.N,Net-(U1-D6)*%
X197297500Y-65212500D03*
%TO.P,U1,12,D7*%
%TO.N,Net-(U1-D7)*%
X197297500Y-62672500D03*
%TO.P,U1,13,D8*%
%TO.N,Net-(U1-D8)*%
X197297500Y-60132500D03*
%TO.P,U1,14,D10*%
%TO.N,Net-(U1-D10)*%
X197297500Y-57592500D03*
%TO.P,U1,15,RX*%
%TO.N,Net-(U1-RX)*%
X197297500Y-55052500D03*
%TO.P,U1,16,TX*%
%TO.N,unconnected-(U1-TX-Pad16)*%
X197297500Y-52512500D03*
%TD*%
D16*
%TO.P,U2,1,NC*%
%TO.N,unconnected-(U2-NC-Pad1)*%
X155668750Y-55045000D03*
%TO.P,U2,2,GND*%
%TO.N,Net-(U1-D4)*%
X155668750Y-55845000D03*
%TO.P,U2,3,LED-*%
%TO.N,unconnected-(U2-LED--Pad3)*%
X155668750Y-56645000D03*
%TO.P,U2,4,LED+*%
%TO.N,unconnected-(U2-LED+-Pad4)*%
X155668750Y-57445000D03*
%TO.P,U2,5,GND*%
%TO.N,unconnected-(U2-GND-Pad5)*%
X155668750Y-58245000D03*
%TO.P,U2,6,RESET*%
%TO.N,Net-(U1-D2)*%
X155668750Y-59045000D03*
%TO.P,U2,7,A0*%
%TO.N,Net-(U1-D3)*%
X155668750Y-59845000D03*
%TO.P,U2,8,SDA*%
%TO.N,Net-(U1-D5)*%
X155668750Y-60645000D03*
%TO.P,U2,9,SCK*%
%TO.N,Net-(U1-D4)*%
X155668750Y-61445000D03*
%TO.P,U2,10,VCC*%
%TO.N,unconnected-(U2-VCC-Pad10)*%
X155668750Y-62245000D03*
%TO.P,U2,11,IOVCC*%
%TO.N,unconnected-(U2-IOVCC-Pad11)*%
X155668750Y-63045000D03*
%TO.P,U2,12,CS*%
%TO.N,Net-(U1-D1)*%
X155668750Y-63845000D03*
%TO.P,U2,13,GND*%
%TO.N,unconnected-(U2-GND-Pad13)*%
X155668750Y-64645000D03*
%TO.P,U2,14,NC*%
%TO.N,unconnected-(U2-NC-Pad14)*%
X155668750Y-65445000D03*
%TD*%
D17*
%TO.N,Net-(U1-D4)*%
X157480000Y-63245000D03*
X157480000Y-58420000D03*
%TO.N,Net-(U1-D8)*%
X167640000Y-76200000D03*
%TO.N,Net-(U1-D6)*%
X190500000Y-68580000D03*
%TO.N,Net-(U1-D7)*%
X187960000Y-66040000D03*
%TD*%
D18*
%TO.N,Net-(U1-D4)*%
X156918749Y-61445000D02*
X155668750Y-61445000D01*
X157480000Y-62006251D02*
X156918749Y-61445000D01*
X157480000Y-63245000D02*
X157480000Y-62006251D01*
X156918749Y-55845000D02*
X157480000Y-56406251D01*
X157480000Y-56406251D02*
X157480000Y-58420000D01*
X155668750Y-55845000D02*
X156918749Y-55845000D01*
X180458750Y-96670000D02*
X181252500Y-95876250D01*
X171410000Y-96670000D02*
X152550000Y-96670000D01*
X152550000Y-96670000D02*
X152400000Y-96520000D01*
X133350000Y-96520000D02*
X152400000Y-96520000D01*
%TO.N,Net-(U1-D8)*%
X144780000Y-76200000D02*
X167640000Y-76200000D01*
X130810000Y-90170000D02*
X144780000Y-76200000D01*
%TO.N,Net-(U1-D7)*%
X156884149Y-90170000D02*
X181014149Y-66040000D01*
X149860000Y-90170000D02*
X156884149Y-90170000D01*
%TO.N,Net-(U1-D4)*%
X173781451Y-56491500D02*
X186036500Y-56491500D01*
X181252500Y-95876250D02*
X181252500Y-83797500D01*
X186036500Y-56491500D02*
X197297500Y-67752500D01*
X155668750Y-55845000D02*
X173134951Y-55845000D01*
X173134951Y-55845000D02*
X173781451Y-56491500D01*
X181252500Y-83797500D02*
X197297500Y-67752500D01*
%TO.N,Net-(U1-D1)*%
X176139500Y-70347549D02*
X176139500Y-61834500D01*
X155668750Y-63845000D02*
X162723300Y-63845000D01*
X175093549Y-71393500D02*
X176139500Y-70347549D01*
X176139500Y-61834500D02*
X174437500Y-60132500D01*
X170271800Y-71393500D02*
X175093549Y-71393500D01*
X162723300Y-63845000D02*
X170271800Y-71393500D01*
%TO.N,Net-(U1-D2)*%
X155668750Y-59045000D02*
X172985000Y-59045000D01*
X172985000Y-59045000D02*
X174437500Y-57592500D01*
%TO.N,Net-(U1-D5)*%
X167765000Y-67752500D02*
X174437500Y-67752500D01*
X155668750Y-60645000D02*
X160657500Y-60645000D01*
X160657500Y-60645000D02*
X167765000Y-67752500D01*
%TO.N,Net-(U1-D4)*%
X160890400Y-61445000D02*
X168298900Y-68853500D01*
X175738500Y-68208549D02*
X175738500Y-66513500D01*
X175738500Y-66513500D02*
X174437500Y-65212500D01*
X175093549Y-68853500D02*
X175738500Y-68208549D01*
X168298900Y-68853500D02*
X175093549Y-68853500D01*
X155668750Y-61445000D02*
X160890400Y-61445000D01*
%TO.N,Net-(U1-D3)*%
X154349880Y-54544000D02*
X173929000Y-54544000D01*
X155668750Y-59845000D02*
X154418751Y-59845000D01*
X154117750Y-54776130D02*
X154349880Y-54544000D01*
X154117750Y-59543999D02*
X154117750Y-54776130D01*
X154418751Y-59845000D02*
X154117750Y-59543999D01*
X173929000Y-54544000D02*
X174437500Y-55052500D01*
%TO.N,Net-(U1-D10)*%
X185915000Y-91480000D02*
X198598500Y-78796500D01*
X198598500Y-78796500D02*
X198598500Y-58893500D01*
X198598500Y-58893500D02*
X197297500Y-57592500D01*
%TO.N,Net-(U1-D4)*%
X185915000Y-93980000D02*
X184614000Y-92679000D01*
X184614000Y-92679000D02*
X184614000Y-80436000D01*
X184614000Y-80436000D02*
X197297500Y-67752500D01*
%TO.N,Net-(U1-RX)*%
X198999500Y-56754500D02*
X197297500Y-55052500D01*
X191514000Y-90881000D02*
X191514000Y-87079000D01*
X185915000Y-96480000D02*
X191514000Y-90881000D01*
X191514000Y-87079000D02*
X198999500Y-79593500D01*
X198999500Y-79593500D02*
X198999500Y-56754500D01*
%TO.N,Net-(U1-D6)*%
X168870000Y-90320000D02*
X190500000Y-68690000D01*
X190500000Y-68690000D02*
X190500000Y-68580000D01*
%TO.N,Net-(U1-D7)*%
X181014149Y-66040000D02*
X187960000Y-66040000D01*
%TO.N,Net-(U1-D4)*%
X171410000Y-96670000D02*
X180458750Y-96670000D01*
%TD*%
M02*
