%TF.GenerationSoftware,KiCad,Pcbnew,9.0.5*%
%TF.CreationDate,2026-06-22T17:29:21+05:30*%
%TF.ProjectId,spotify_display,73706f74-6966-4795-9f64-6973706c6179,rev?*%
%TF.SameCoordinates,Original*%
%TF.FileFunction,Legend,Top*%
%TF.FilePolarity,Positive*%
%FSLAX46Y46*%
G04 Gerber Fmt 4.6, Leading zero omitted, Abs format (unit mm)*
G04 Created by KiCad (PCBNEW 9.0.5) date 2026-06-22 17:29:21*
%MOMM*%
%LPD*%
G01*
G04 APERTURE LIST*
%ADD10C,0.150000*%
%ADD11C,0.120000*%
G04 APERTURE END LIST*
D10*
X136551200Y-95313332D02*
X136598819Y-95170475D01*
X136598819Y-95170475D02*
X136598819Y-94932380D01*
X136598819Y-94932380D02*
X136551200Y-94837142D01*
X136551200Y-94837142D02*
X136503580Y-94789523D01*
X136503580Y-94789523D02*
X136408342Y-94741904D01*
X136408342Y-94741904D02*
X136313104Y-94741904D01*
X136313104Y-94741904D02*
X136217866Y-94789523D01*
X136217866Y-94789523D02*
X136170247Y-94837142D01*
X136170247Y-94837142D02*
X136122628Y-94932380D01*
X136122628Y-94932380D02*
X136075009Y-95122856D01*
X136075009Y-95122856D02*
X136027390Y-95218094D01*
X136027390Y-95218094D02*
X135979771Y-95265713D01*
X135979771Y-95265713D02*
X135884533Y-95313332D01*
X135884533Y-95313332D02*
X135789295Y-95313332D01*
X135789295Y-95313332D02*
X135694057Y-95265713D01*
X135694057Y-95265713D02*
X135646438Y-95218094D01*
X135646438Y-95218094D02*
X135598819Y-95122856D01*
X135598819Y-95122856D02*
X135598819Y-94884761D01*
X135598819Y-94884761D02*
X135646438Y-94741904D01*
X135598819Y-94408570D02*
X136598819Y-94170475D01*
X136598819Y-94170475D02*
X135884533Y-93979999D01*
X135884533Y-93979999D02*
X136598819Y-93789523D01*
X136598819Y-93789523D02*
X135598819Y-93551428D01*
X135598819Y-93265713D02*
X135598819Y-92646666D01*
X135598819Y-92646666D02*
X135979771Y-92979999D01*
X135979771Y-92979999D02*
X135979771Y-92837142D01*
X135979771Y-92837142D02*
X136027390Y-92741904D01*
X136027390Y-92741904D02*
X136075009Y-92694285D01*
X136075009Y-92694285D02*
X136170247Y-92646666D01*
X136170247Y-92646666D02*
X136408342Y-92646666D01*
X136408342Y-92646666D02*
X136503580Y-92694285D01*
X136503580Y-92694285D02*
X136551200Y-92741904D01*
X136551200Y-92741904D02*
X136598819Y-92837142D01*
X136598819Y-92837142D02*
X136598819Y-93122856D01*
X136598819Y-93122856D02*
X136551200Y-93218094D01*
X136551200Y-93218094D02*
X136503580Y-93265713D01*
X174611200Y-95463332D02*
X174658819Y-95320475D01*
X174658819Y-95320475D02*
X174658819Y-95082380D01*
X174658819Y-95082380D02*
X174611200Y-94987142D01*
X174611200Y-94987142D02*
X174563580Y-94939523D01*
X174563580Y-94939523D02*
X174468342Y-94891904D01*
X174468342Y-94891904D02*
X174373104Y-94891904D01*
X174373104Y-94891904D02*
X174277866Y-94939523D01*
X174277866Y-94939523D02*
X174230247Y-94987142D01*
X174230247Y-94987142D02*
X174182628Y-95082380D01*
X174182628Y-95082380D02*
X174135009Y-95272856D01*
X174135009Y-95272856D02*
X174087390Y-95368094D01*
X174087390Y-95368094D02*
X174039771Y-95415713D01*
X174039771Y-95415713D02*
X173944533Y-95463332D01*
X173944533Y-95463332D02*
X173849295Y-95463332D01*
X173849295Y-95463332D02*
X173754057Y-95415713D01*
X173754057Y-95415713D02*
X173706438Y-95368094D01*
X173706438Y-95368094D02*
X173658819Y-95272856D01*
X173658819Y-95272856D02*
X173658819Y-95034761D01*
X173658819Y-95034761D02*
X173706438Y-94891904D01*
X173658819Y-94558570D02*
X174658819Y-94320475D01*
X174658819Y-94320475D02*
X173944533Y-94129999D01*
X173944533Y-94129999D02*
X174658819Y-93939523D01*
X174658819Y-93939523D02*
X173658819Y-93701428D01*
X174658819Y-92796666D02*
X174658819Y-93368094D01*
X174658819Y-93082380D02*
X173658819Y-93082380D01*
X173658819Y-93082380D02*
X173801676Y-93177618D01*
X173801676Y-93177618D02*
X173896914Y-93272856D01*
X173896914Y-93272856D02*
X173944533Y-93368094D01*
X155601200Y-95313332D02*
X155648819Y-95170475D01*
X155648819Y-95170475D02*
X155648819Y-94932380D01*
X155648819Y-94932380D02*
X155601200Y-94837142D01*
X155601200Y-94837142D02*
X155553580Y-94789523D01*
X155553580Y-94789523D02*
X155458342Y-94741904D01*
X155458342Y-94741904D02*
X155363104Y-94741904D01*
X155363104Y-94741904D02*
X155267866Y-94789523D01*
X155267866Y-94789523D02*
X155220247Y-94837142D01*
X155220247Y-94837142D02*
X155172628Y-94932380D01*
X155172628Y-94932380D02*
X155125009Y-95122856D01*
X155125009Y-95122856D02*
X155077390Y-95218094D01*
X155077390Y-95218094D02*
X155029771Y-95265713D01*
X155029771Y-95265713D02*
X154934533Y-95313332D01*
X154934533Y-95313332D02*
X154839295Y-95313332D01*
X154839295Y-95313332D02*
X154744057Y-95265713D01*
X154744057Y-95265713D02*
X154696438Y-95218094D01*
X154696438Y-95218094D02*
X154648819Y-95122856D01*
X154648819Y-95122856D02*
X154648819Y-94884761D01*
X154648819Y-94884761D02*
X154696438Y-94741904D01*
X154648819Y-94408570D02*
X155648819Y-94170475D01*
X155648819Y-94170475D02*
X154934533Y-93979999D01*
X154934533Y-93979999D02*
X155648819Y-93789523D01*
X155648819Y-93789523D02*
X154648819Y-93551428D01*
X154744057Y-93218094D02*
X154696438Y-93170475D01*
X154696438Y-93170475D02*
X154648819Y-93075237D01*
X154648819Y-93075237D02*
X154648819Y-92837142D01*
X154648819Y-92837142D02*
X154696438Y-92741904D01*
X154696438Y-92741904D02*
X154744057Y-92694285D01*
X154744057Y-92694285D02*
X154839295Y-92646666D01*
X154839295Y-92646666D02*
X154934533Y-92646666D01*
X154934533Y-92646666D02*
X155077390Y-92694285D01*
X155077390Y-92694285D02*
X155648819Y-93265713D01*
X155648819Y-93265713D02*
X155648819Y-92646666D01*
X187381667Y-87187200D02*
X187524524Y-87234819D01*
X187524524Y-87234819D02*
X187762619Y-87234819D01*
X187762619Y-87234819D02*
X187857857Y-87187200D01*
X187857857Y-87187200D02*
X187905476Y-87139580D01*
X187905476Y-87139580D02*
X187953095Y-87044342D01*
X187953095Y-87044342D02*
X187953095Y-86949104D01*
X187953095Y-86949104D02*
X187905476Y-86853866D01*
X187905476Y-86853866D02*
X187857857Y-86806247D01*
X187857857Y-86806247D02*
X187762619Y-86758628D01*
X187762619Y-86758628D02*
X187572143Y-86711009D01*
X187572143Y-86711009D02*
X187476905Y-86663390D01*
X187476905Y-86663390D02*
X187429286Y-86615771D01*
X187429286Y-86615771D02*
X187381667Y-86520533D01*
X187381667Y-86520533D02*
X187381667Y-86425295D01*
X187381667Y-86425295D02*
X187429286Y-86330057D01*
X187429286Y-86330057D02*
X187476905Y-86282438D01*
X187476905Y-86282438D02*
X187572143Y-86234819D01*
X187572143Y-86234819D02*
X187810238Y-86234819D01*
X187810238Y-86234819D02*
X187953095Y-86282438D01*
X188286429Y-86234819D02*
X188524524Y-87234819D01*
X188524524Y-87234819D02*
X188715000Y-86520533D01*
X188715000Y-86520533D02*
X188905476Y-87234819D01*
X188905476Y-87234819D02*
X189143572Y-86234819D01*
X189953095Y-86568152D02*
X189953095Y-87234819D01*
X189715000Y-86187200D02*
X189476905Y-86901485D01*
X189476905Y-86901485D02*
X190095952Y-86901485D01*
X185675595Y-61967319D02*
X185675595Y-62776842D01*
X185675595Y-62776842D02*
X185723214Y-62872080D01*
X185723214Y-62872080D02*
X185770833Y-62919700D01*
X185770833Y-62919700D02*
X185866071Y-62967319D01*
X185866071Y-62967319D02*
X186056547Y-62967319D01*
X186056547Y-62967319D02*
X186151785Y-62919700D01*
X186151785Y-62919700D02*
X186199404Y-62872080D01*
X186199404Y-62872080D02*
X186247023Y-62776842D01*
X186247023Y-62776842D02*
X186247023Y-61967319D01*
X187247023Y-62967319D02*
X186675595Y-62967319D01*
X186961309Y-62967319D02*
X186961309Y-61967319D01*
X186961309Y-61967319D02*
X186866071Y-62110176D01*
X186866071Y-62110176D02*
X186770833Y-62205414D01*
X186770833Y-62205414D02*
X186675595Y-62253033D01*
X136456845Y-61999819D02*
X136456845Y-62809342D01*
X136456845Y-62809342D02*
X136504464Y-62904580D01*
X136504464Y-62904580D02*
X136552083Y-62952200D01*
X136552083Y-62952200D02*
X136647321Y-62999819D01*
X136647321Y-62999819D02*
X136837797Y-62999819D01*
X136837797Y-62999819D02*
X136933035Y-62952200D01*
X136933035Y-62952200D02*
X136980654Y-62904580D01*
X136980654Y-62904580D02*
X137028273Y-62809342D01*
X137028273Y-62809342D02*
X137028273Y-61999819D01*
X137456845Y-62095057D02*
X137504464Y-62047438D01*
X137504464Y-62047438D02*
X137599702Y-61999819D01*
X137599702Y-61999819D02*
X137837797Y-61999819D01*
X137837797Y-61999819D02*
X137933035Y-62047438D01*
X137933035Y-62047438D02*
X137980654Y-62095057D01*
X137980654Y-62095057D02*
X138028273Y-62190295D01*
X138028273Y-62190295D02*
X138028273Y-62285533D01*
X138028273Y-62285533D02*
X137980654Y-62428390D01*
X137980654Y-62428390D02*
X137409226Y-62999819D01*
X137409226Y-62999819D02*
X138028273Y-62999819D01*
D11*
%TO.C,SW3*%
X135255000Y-100965000D02*
X121285000Y-100965000D01*
X135255000Y-86995000D02*
X135255000Y-100965000D01*
X121285000Y-100965000D02*
X121285000Y-86995000D01*
X121285000Y-86995000D02*
X135255000Y-86995000D01*
%TO.C,SW1*%
X173315000Y-101115000D02*
X159345000Y-101115000D01*
X173315000Y-87145000D02*
X173315000Y-101115000D01*
X159345000Y-101115000D02*
X159345000Y-87145000D01*
X159345000Y-87145000D02*
X173315000Y-87145000D01*
%TO.C,SW2*%
X154305000Y-100965000D02*
X140335000Y-100965000D01*
X154305000Y-86995000D02*
X154305000Y-100965000D01*
X140335000Y-100965000D02*
X140335000Y-86995000D01*
X140335000Y-86995000D02*
X154305000Y-86995000D01*
%TO.C,SW4*%
X185615000Y-89880000D02*
X186215000Y-89880000D01*
X185915000Y-90180000D02*
X185615000Y-89880000D01*
X186215000Y-89880000D02*
X185915000Y-90180000D01*
X187315000Y-88180000D02*
X187315000Y-99880000D01*
X191415000Y-88180000D02*
X187315000Y-88180000D01*
X191415000Y-99880000D02*
X187315000Y-99880000D01*
X192915000Y-93980000D02*
X193915000Y-93980000D01*
X193415000Y-93480000D02*
X193415000Y-94480000D01*
X195415000Y-88080000D02*
X199515000Y-88080000D01*
X199515000Y-88080000D02*
X199515000Y-90680000D01*
X199515000Y-92680000D02*
X199515000Y-95280000D01*
X199515000Y-97280000D02*
X199515000Y-99880000D01*
X199515000Y-99880000D02*
X195415000Y-99880000D01*
X196415000Y-93980000D02*
G75*
G02*
X190415000Y-93980000I-3000000J0D01*
G01*
X190415000Y-93980000D02*
G75*
G02*
X196415000Y-93980000I3000000J0D01*
G01*
%TO.C,U1*%
X173037500Y-48865469D02*
X173037500Y-71662500D01*
X175037500Y-72262500D02*
X173037500Y-71662500D01*
X175037500Y-72262500D02*
X175037500Y-78059531D01*
X176187500Y-79209530D02*
X197587500Y-79209530D01*
X194637500Y-44612500D02*
X177187500Y-44612500D01*
X198737500Y-78059531D02*
X198737500Y-48759531D01*
X173037500Y-48862500D02*
G75*
G02*
X177187500Y-44608253I4150000J102970D01*
G01*
X176187500Y-79212500D02*
G75*
G02*
X175034530Y-78059530I0J1152970D01*
G01*
X194587500Y-44612500D02*
G75*
G02*
X198734500Y-48759531I0J-4147000D01*
G01*
X198737500Y-78059531D02*
G75*
G02*
X197587500Y-79209530I-1150000J1D01*
G01*
X172532500Y-52512500D02*
X171897500Y-53147500D01*
X171897500Y-51877500D01*
X172532500Y-52512500D01*
G36*
X172532500Y-52512500D02*
G01*
X171897500Y-53147500D01*
X171897500Y-51877500D01*
X172532500Y-52512500D01*
G37*
D10*
%TO.C,U2*%
X119318750Y-43295000D02*
X165168750Y-43295000D01*
X119318750Y-77295000D02*
X119318750Y-43295000D01*
X122068750Y-46245000D02*
X122068750Y-74245000D01*
X122068750Y-46245000D02*
X157068750Y-46245000D01*
X122068750Y-74245000D02*
X157068750Y-74245000D01*
X138118750Y-60195000D02*
X139318750Y-60195000D01*
X139318750Y-59745000D02*
X139318750Y-59295000D01*
X139318750Y-59795000D02*
X139318750Y-60945000D01*
X139318750Y-60195000D02*
X139318750Y-59695000D01*
X139318750Y-60195000D02*
X140718750Y-60195000D01*
X139368750Y-60195000D02*
X138118750Y-60195000D01*
X154068750Y-51845000D02*
X154468750Y-51445000D01*
X154068750Y-53645000D02*
X154068750Y-51845000D01*
X154068750Y-53645000D02*
X154068750Y-70645000D01*
X154068750Y-70645000D02*
X154468750Y-71045000D01*
X154468750Y-51445000D02*
X156268750Y-51445000D01*
X154468750Y-71045000D02*
X165068750Y-71045000D01*
X156268750Y-51445000D02*
X165068750Y-51445000D01*
X157068750Y-51445000D02*
X157068750Y-46245000D01*
X157068750Y-71045000D02*
X157068750Y-74245000D01*
X163068750Y-77045000D02*
X163868750Y-75845000D01*
X163868750Y-75845000D02*
X163068750Y-75845000D01*
X163868750Y-77045000D02*
X163068750Y-77045000D01*
X164268750Y-75845000D02*
X163668750Y-76845000D01*
X164268750Y-77045000D02*
X164268750Y-75845000D01*
X164268750Y-77045000D02*
X164868750Y-75845000D01*
X164868750Y-75845000D02*
X164268750Y-77045000D01*
X164868750Y-77045000D02*
X164868750Y-75845000D01*
X165068750Y-61245000D02*
X164868750Y-61245000D01*
X165168750Y-43295000D02*
X165168750Y-77295000D01*
X165168750Y-77295000D02*
X119318750Y-77295000D01*
X155868750Y-53845000D02*
G75*
G02*
X155468750Y-53845000I-200000J0D01*
G01*
X155468750Y-53845000D02*
G75*
G02*
X155868750Y-53845000I200000J0D01*
G01*
%TD*%
M02*
